<?xml version="1.0" encoding="UTF-8"?>
<!DOCTYPE svg PUBLIC "-//W3C//DTD SVG 1.1//EN" "http://www.w3.org/Graphics/SVG/1.1/DTD/svg11.dtd">
<svg xmlns="http://www.w3.org/2000/svg" version="1.1" width="4171px" height="4172px" style="shape-rendering:geometricPrecision; text-rendering:geometricPrecision; image-rendering:optimizeQuality; fill-rule:evenodd; clip-rule:evenodd" xmlns:xlink="http://www.w3.org/1999/xlink">
<g><path style="opacity:0.994" fill="#e81e62" d="M 1002.5,2733.5 C 1002.82,2735.72 1002.16,2737.56 1000.5,2739C 959.671,2775.33 919.338,2812.16 879.5,2849.5C 754.91,2657.25 681.41,2446.59 659,2217.5C 632.752,1918.05 694.085,1638.05 843,1377.5C 991.445,1126.72 1196.95,938.218 1459.5,812C 1743.61,680.529 2039.28,645.529 2346.5,707C 2659.35,774.602 2920.18,928.435 3129,1168.5C 3159.56,1204.15 3188.06,1241.32 3214.5,1280C 3172.14,1315.35 3129.48,1350.35 3086.5,1385C 3085.5,1385.67 3084.5,1385.67 3083.5,1385C 2932.16,1165.44 2731.16,1009.44 2480.5,917C 2273.52,844.251 2061.85,826.251 1845.5,863C 1551.28,918.576 1307.11,1059.08 1113,1284.5C 932.47,1501.76 835.137,1752.43 821,2036.5C 812.519,2270.24 864.852,2489.24 978,2693.5C 985.927,2707.03 994.094,2720.36 1002.5,2733.5 Z"/></g>
<g><path style="opacity:0.994" fill="#e81e62" d="M 2398.5,1508.5 C 2394.78,1512.92 2391.28,1517.59 2388,1522.5C 2355.88,1571.76 2324.05,1621.09 2292.5,1670.5C 2273.07,1630.65 2253.91,1590.65 2235,1550.5C 2203.29,1460.72 2209.63,1373.72 2254,1289.5C 2271.06,1259.29 2292.56,1232.46 2318.5,1209C 2414,1133.5 2509.5,1058 2605,982.5C 2688.03,1154.56 2770.53,1326.9 2852.5,1499.5C 2830.1,1563.87 2807.6,1628.2 2785,1692.5C 2773.96,1719.54 2757.46,1742.71 2735.5,1762C 2701.76,1786.96 2667.92,1811.79 2634,1836.5C 2609.02,1786.53 2584.02,1736.53 2559,1686.5C 2558.37,1684.1 2559.2,1682.26 2561.5,1681C 2584.27,1664.87 2606.77,1648.37 2629,1631.5C 2643.7,1590.39 2658.2,1549.23 2672.5,1508C 2629.86,1419.88 2587.36,1331.71 2545,1243.5C 2507.59,1273.12 2470.09,1302.62 2432.5,1332C 2390.39,1370.66 2374.89,1418.16 2386,1474.5C 2389.09,1486.27 2393.26,1497.6 2398.5,1508.5 Z"/></g>
<g><path style="opacity:0.994" fill="#e81d62" d="M 3362.5,1550.5 C 3362.5,1551.17 3362.5,1551.83 3362.5,1552.5C 3361.04,1548.25 3359.04,1544.25 3356.5,1540.5C 3356.13,1536.7 3354.79,1533.37 3352.5,1530.5C 3352.17,1526.64 3350.5,1525.8 3347.5,1528C 3330.58,1541.61 3313.91,1555.45 3297.5,1569.5C 3269.85,1590.83 3242.85,1612.83 3216.5,1635.5C 3090.6,1738.13 2964.27,1840.29 2837.5,1942C 2820.24,1956.6 2806.74,1974.1 2797,1994.5C 2755.39,2104.66 2713.39,2214.66 2671,2324.5C 2643.74,2380.1 2603.57,2423.93 2550.5,2456C 2453.61,2508.61 2356.94,2561.44 2260.5,2614.5C 2253.3,2616.77 2246.63,2620.1 2240.5,2624.5C 2208.87,2640.98 2177.54,2657.98 2146.5,2675.5C 2128.64,2684.93 2110.97,2694.6 2093.5,2704.5C 1997.47,2757.18 1901.47,2809.85 1805.5,2862.5C 1792.12,2868.36 1779.12,2875.03 1766.5,2882.5C 1725.34,2904.58 1684.34,2926.91 1643.5,2949.5C 1582.89,2982.13 1522.56,3015.13 1462.5,3048.5C 1276.86,3149.65 1091.19,3250.82 905.5,3352C 881.765,3365.69 856.432,3375.02 829.5,3380C 782.861,3382.43 745.361,3365.26 717,3328.5C 696.449,3297.75 689.449,3264.08 696,3227.5C 700.885,3203.73 711.552,3183.06 728,3165.5C 739.058,3155.6 750.225,3145.93 761.5,3136.5C 761.5,3136.83 761.5,3137.17 761.5,3137.5C 759.833,3139.5 758.167,3141.5 756.5,3143.5C 753.736,3147.6 751.403,3151.93 749.5,3156.5C 748.27,3158.3 747.604,3160.3 747.5,3162.5C 745.498,3166.83 744.498,3171.5 744.5,3176.5C 742.594,3206.02 753.927,3228.69 778.5,3244.5C 783.12,3247.31 788.12,3249.31 793.5,3250.5C 794.568,3251.43 795.901,3251.77 797.5,3251.5C 802.64,3252.49 807.974,3252.82 813.5,3252.5C 817.198,3252.45 820.865,3252.11 824.5,3251.5C 827.833,3250.5 831.167,3249.5 834.5,3248.5C 837.018,3247.74 839.351,3246.74 841.5,3245.5C 844.45,3244.69 847.117,3243.36 849.5,3241.5C 852.672,3239.75 855.672,3237.75 858.5,3235.5C 861.009,3234.08 863.343,3232.41 865.5,3230.5C 866.167,3230.5 866.5,3230.17 866.5,3229.5C 867.492,3229.67 868.158,3229.34 868.5,3228.5C 869.167,3228.5 869.5,3228.17 869.5,3227.5C 1391.61,2928.28 1913.61,2628.78 2435.5,2329C 2452.03,2319.79 2468.03,2309.79 2483.5,2299C 2501.25,2283.58 2514.75,2265.08 2524,2243.5C 2564.41,2135.93 2605.41,2028.6 2647,1921.5C 2667.47,1879.76 2695.3,1843.59 2730.5,1813C 2985.5,1607.17 3240.5,1401.33 3495.5,1195.5C 3521.39,1251.46 3523.89,1308.46 3503,1366.5C 3489.53,1400.96 3468.7,1430.13 3440.5,1454C 3411.04,1477.12 3381.88,1500.62 3353,1524.5C 3356.04,1533.12 3359.21,1541.78 3362.5,1550.5 Z"/></g>
<g><path style="opacity:0.996" fill="#e41d61" d="M 2398.5,1508.5 C 2402.07,1514.64 2405.41,1520.97 2408.5,1527.5C 2406.22,1528.96 2404.38,1530.96 2403,1533.5C 2369.67,1584.83 2336.33,1636.17 2303,1687.5C 2302.52,1688.45 2302.35,1689.45 2302.5,1690.5C 2299.2,1683.9 2295.87,1677.23 2292.5,1670.5C 2324.05,1621.09 2355.88,1571.76 2388,1522.5C 2391.28,1517.59 2394.78,1512.92 2398.5,1508.5 Z"/></g>
<g><path style="opacity:0.998" fill="#dd1c5e" d="M 2408.5,1527.5 C 2409.44,1529.05 2410.11,1530.72 2410.5,1532.5C 2410.6,1534.7 2411.27,1536.7 2412.5,1538.5C 2377,1592.15 2342,1646.15 2307.5,1700.5C 2305.33,1697.48 2303.66,1694.15 2302.5,1690.5C 2302.35,1689.45 2302.52,1688.45 2303,1687.5C 2336.33,1636.17 2369.67,1584.83 2403,1533.5C 2404.38,1530.96 2406.22,1528.96 2408.5,1527.5 Z"/></g>
<g><path style="opacity:1" fill="#b8164a" d="M 3352.5,1530.5 C 3310.84,1572.99 3269.34,1615.66 3228,1658.5C 3227.98,1660.8 3228.15,1663.13 3228.5,1665.5C 3226.93,1662.78 3225.93,1659.78 3225.5,1656.5C 3225.15,1653.93 3224.48,1651.43 3223.5,1649C 3223.86,1647.78 3224.36,1646.61 3225,1645.5C 3248.1,1621.64 3271.44,1597.97 3295,1574.5C 3295.78,1572.71 3296.95,1571.21 3298.5,1570C 3298.27,1569.6 3297.94,1569.43 3297.5,1569.5C 3313.91,1555.45 3330.58,1541.61 3347.5,1528C 3350.5,1525.8 3352.17,1526.64 3352.5,1530.5 Z"/></g>
<g><path style="opacity:0.999" fill="#be174d" d="M 3352.5,1530.5 C 3354.79,1533.37 3356.13,1536.7 3356.5,1540.5C 3318.95,1581.22 3280.45,1621.22 3241,1660.5C 3238.37,1664.13 3235.37,1667.47 3232,1670.5C 3231.52,1671.45 3231.35,1672.45 3231.5,1673.5C 3229.98,1671.11 3228.98,1668.44 3228.5,1665.5C 3228.15,1663.13 3227.98,1660.8 3228,1658.5C 3269.34,1615.66 3310.84,1572.99 3352.5,1530.5 Z"/></g>
<g><path style="opacity:0.999" fill="#d71b5b" d="M 2412.5,1538.5 C 2413.5,1541.83 2414.5,1545.17 2415.5,1548.5C 2380.35,1601.46 2345.68,1654.79 2311.5,1708.5C 2309.66,1706.15 2308.33,1703.48 2307.5,1700.5C 2342,1646.15 2377,1592.15 2412.5,1538.5 Z"/></g>
<g><path style="opacity:0.994" fill="#e81d62" d="M 2410.5,1532.5 C 2438.23,1587.62 2465.73,1642.95 2493,1698.5C 2512.26,1746.93 2505.93,1791.59 2474,1832.5C 2450.17,1854.33 2426.33,1876.17 2402.5,1898C 1891.63,2341.04 1380.63,2783.88 869.5,3226.5C 870.919,3223.9 872.585,3221.4 874.5,3219C 852.598,3177.36 830.598,3135.86 808.5,3094.5C 858.167,3049.83 907.833,3005.17 957.5,2960.5C 958.922,2960.29 960.255,2959.79 961.5,2959C 1000.54,2923.63 1039.87,2888.63 1079.5,2854C 1081.46,2852.55 1082.8,2850.72 1083.5,2848.5C 1151.25,2788.63 1218.58,2728.29 1285.5,2667.5C 1287.78,2667.39 1289.78,2666.56 1291.5,2665C 1332.2,2627.96 1373.2,2591.3 1414.5,2555C 1413.94,2554.62 1413.61,2554.12 1413.5,2553.5C 1413.5,2553.17 1413.5,2552.83 1413.5,2552.5C 1414.12,2552.61 1414.62,2552.94 1415,2553.5C 1658.36,2336.97 1901.53,2120.3 2144.5,1903.5C 2145.55,1903.65 2146.55,1903.48 2147.5,1903C 2170.06,1882.26 2192.73,1861.76 2215.5,1841.5C 2230.58,1828.96 2245.25,1815.96 2259.5,1802.5C 2265.87,1797.79 2271.54,1792.46 2276.5,1786.5C 2292.84,1770.83 2309.51,1755.49 2326.5,1740.5C 2331.55,1736.97 2336.21,1732.97 2340.5,1728.5C 2349.44,1721.86 2357.77,1714.53 2365.5,1706.5C 2390.71,1686.1 2407.38,1660.1 2415.5,1628.5C 2418,1621.84 2419.33,1614.84 2419.5,1607.5C 2420.45,1606.08 2420.78,1604.41 2420.5,1602.5C 2421.76,1593.97 2421.76,1585.31 2420.5,1576.5C 2420.63,1573.43 2420.3,1570.43 2419.5,1567.5C 2419.1,1563.99 2418.43,1560.66 2417.5,1557.5C 2417.3,1554.37 2416.63,1551.37 2415.5,1548.5C 2414.5,1545.17 2413.5,1541.83 2412.5,1538.5C 2411.27,1536.7 2410.6,1534.7 2410.5,1532.5 Z"/></g>
<g><path style="opacity:0.999" fill="#c4184f" d="M 3356.5,1540.5 C 3359.04,1544.25 3361.04,1548.25 3362.5,1552.5C 3362.5,1553.17 3362.5,1553.83 3362.5,1554.5C 3353.23,1564.94 3343.73,1575.28 3334,1585.5C 3301.3,1619.03 3268.47,1652.37 3235.5,1685.5C 3233.59,1681.78 3232.26,1677.78 3231.5,1673.5C 3231.35,1672.45 3231.52,1671.45 3232,1670.5C 3235.37,1667.47 3238.37,1664.13 3241,1660.5C 3280.45,1621.22 3318.95,1581.22 3356.5,1540.5 Z"/></g>
<g><path style="opacity:0.999" fill="#d11b59" d="M 2415.5,1548.5 C 2416.63,1551.37 2417.3,1554.37 2417.5,1557.5C 2385.02,1607.1 2352.52,1656.77 2320,1706.5C 2317.78,1709.54 2316.28,1712.87 2315.5,1716.5C 2313.66,1714.15 2312.33,1711.48 2311.5,1708.5C 2345.68,1654.79 2380.35,1601.46 2415.5,1548.5 Z"/></g>
<g><path style="opacity:0.994" fill="#e81e62" d="M 3362.5,1550.5 C 3421.02,1690.27 3455.19,1835.93 3465,1987.5C 3485.34,2321.22 3400.67,2624.89 3211,2898.5C 3021.67,3161.04 2771.84,3340.2 2461.5,3436C 2203.86,3510.17 1945.53,3512.51 1686.5,3443C 1546.34,3404.48 1415.67,3345.65 1294.5,3266.5C 1298.45,3263.18 1302.79,3260.35 1307.5,3258C 1359.17,3229.83 1410.83,3201.67 1462.5,3173.5C 1695.84,3298.33 1944.18,3346.5 2207.5,3318C 2517.37,3277.17 2776.87,3142 2986,2912.5C 3175.06,2697.88 3279.4,2446.88 3299,2159.5C 3305.98,2042.46 3296.48,1926.8 3270.5,1812.5C 3271.12,1812.61 3271.62,1812.94 3272,1813.5C 3316.33,1768.17 3360.67,1722.83 3405,1677.5C 3401.48,1660.77 3396.64,1644.43 3390.5,1628.5C 3387.96,1621.11 3385.29,1613.78 3382.5,1606.5C 3380.74,1599.87 3378.4,1593.54 3375.5,1587.5C 3373.93,1581.12 3371.6,1575.12 3368.5,1569.5C 3366.87,1564.26 3364.87,1559.26 3362.5,1554.5C 3362.5,1553.83 3362.5,1553.17 3362.5,1552.5C 3362.5,1551.83 3362.5,1551.17 3362.5,1550.5 Z"/></g>
<g><path style="opacity:0.999" fill="#cb1953" d="M 3362.5,1554.5 C 3364.87,1559.26 3366.87,1564.26 3368.5,1569.5C 3364.57,1574.61 3360.4,1579.61 3356,1584.5C 3317.64,1623.2 3279.64,1662.2 3242,1701.5C 3241.62,1700.94 3241.12,1700.61 3240.5,1700.5C 3238.26,1695.78 3236.59,1690.78 3235.5,1685.5C 3268.47,1652.37 3301.3,1619.03 3334,1585.5C 3343.73,1575.28 3353.23,1564.94 3362.5,1554.5 Z"/></g>
<g><path style="opacity:1" fill="#cb1a56" d="M 2417.5,1557.5 C 2418.43,1560.66 2419.1,1563.99 2419.5,1567.5C 2385.6,1618.96 2351.93,1670.63 2318.5,1722.5C 2316.99,1720.82 2315.99,1718.82 2315.5,1716.5C 2316.28,1712.87 2317.78,1709.54 2320,1706.5C 2352.52,1656.77 2385.02,1607.1 2417.5,1557.5 Z"/></g>
<g><path style="opacity:1" fill="#c41953" d="M 2419.5,1567.5 C 2420.3,1570.43 2420.63,1573.43 2420.5,1576.5C 2388.36,1625.43 2356.19,1674.43 2324,1723.5C 2322.88,1725.41 2322.04,1727.41 2321.5,1729.5C 2319.71,1727.57 2318.71,1725.24 2318.5,1722.5C 2351.93,1670.63 2385.6,1618.96 2419.5,1567.5 Z"/></g>
<g><path style="opacity:1" fill="#b21547" d="M 3297.5,1569.5 C 3297.94,1569.43 3298.27,1569.6 3298.5,1570C 3296.95,1571.21 3295.78,1572.71 3295,1574.5C 3271.44,1597.97 3248.1,1621.64 3225,1645.5C 3224.36,1646.61 3223.86,1647.78 3223.5,1649C 3224.48,1651.43 3225.15,1653.93 3225.5,1656.5C 3222.31,1649.58 3219.31,1642.58 3216.5,1635.5C 3242.85,1612.83 3269.85,1590.83 3297.5,1569.5 Z"/></g>
<g><path style="opacity:1" fill="#d11a56" d="M 3368.5,1569.5 C 3371.6,1575.12 3373.93,1581.12 3375.5,1587.5C 3332.51,1631.33 3289.67,1675.33 3247,1719.5C 3246.72,1718.58 3246.22,1717.92 3245.5,1717.5C 3243.37,1711.99 3241.7,1706.32 3240.5,1700.5C 3241.12,1700.61 3241.62,1700.94 3242,1701.5C 3279.64,1662.2 3317.64,1623.2 3356,1584.5C 3360.4,1579.61 3364.57,1574.61 3368.5,1569.5 Z"/></g>
<g><path style="opacity:1" fill="#bc1850" d="M 2420.5,1576.5 C 2421.76,1585.31 2421.76,1593.97 2420.5,1602.5C 2420.66,1599.81 2420.5,1597.15 2420,1594.5C 2388.31,1642.55 2357.15,1690.88 2326.5,1739.5C 2324.33,1736.48 2322.66,1733.15 2321.5,1729.5C 2322.04,1727.41 2322.88,1725.41 2324,1723.5C 2356.19,1674.43 2388.36,1625.43 2420.5,1576.5 Z"/></g>
<g><path style="opacity:1" fill="#d71b59" d="M 3375.5,1587.5 C 3378.4,1593.54 3380.74,1599.87 3382.5,1606.5C 3339.2,1650.63 3296.03,1694.97 3253,1739.5C 3252.62,1738.94 3252.12,1738.61 3251.5,1738.5C 3249.13,1731.71 3247.13,1724.71 3245.5,1717.5C 3246.22,1717.92 3246.72,1718.58 3247,1719.5C 3289.67,1675.33 3332.51,1631.33 3375.5,1587.5 Z"/></g>
<g><path style="opacity:1" fill="#b2174c" d="M 2420.5,1602.5 C 2420.78,1604.41 2420.45,1606.08 2419.5,1607.5C 2419.63,1606.76 2419.46,1606.09 2419,1605.5C 2392.62,1646.42 2366.12,1687.25 2339.5,1728C 2339.73,1728.4 2340.06,1728.57 2340.5,1728.5C 2336.21,1732.97 2331.55,1736.97 2326.5,1740.5C 2326.5,1740.17 2326.5,1739.83 2326.5,1739.5C 2357.15,1690.88 2388.31,1642.55 2420,1594.5C 2420.5,1597.15 2420.66,1599.81 2420.5,1602.5 Z"/></g>
<g><path style="opacity:1" fill="#dd1c5c" d="M 3382.5,1606.5 C 3385.29,1613.78 3387.96,1621.11 3390.5,1628.5C 3347.2,1673.63 3303.7,1718.63 3260,1763.5C 3257.49,1756.1 3254.99,1748.77 3252.5,1741.5C 3251.6,1740.79 3251.26,1739.79 3251.5,1738.5C 3252.12,1738.61 3252.62,1738.94 3253,1739.5C 3296.03,1694.97 3339.2,1650.63 3382.5,1606.5 Z"/></g>
<g><path style="opacity:1" fill="#a71547" d="M 2419.5,1607.5 C 2419.33,1614.84 2418,1621.84 2415.5,1628.5C 2398.62,1653.11 2381.78,1678.44 2365,1704.5C 2364.31,1705.44 2364.47,1706.1 2365.5,1706.5C 2357.77,1714.53 2349.44,1721.86 2340.5,1728.5C 2340.06,1728.57 2339.73,1728.4 2339.5,1728C 2366.12,1687.25 2392.62,1646.42 2419,1605.5C 2419.46,1606.09 2419.63,1606.76 2419.5,1607.5 Z"/></g>
<g><path style="opacity:0.999" fill="#e41d60" d="M 3390.5,1628.5 C 3396.64,1644.43 3401.48,1660.77 3405,1677.5C 3360.67,1722.83 3316.33,1768.17 3272,1813.5C 3271.62,1812.94 3271.12,1812.61 3270.5,1812.5C 3264.66,1788.8 3258.66,1765.14 3252.5,1741.5C 3254.99,1748.77 3257.49,1756.1 3260,1763.5C 3303.7,1718.63 3347.2,1673.63 3390.5,1628.5 Z"/></g>
<g><path style="opacity:1" fill="#9d1442" d="M 2415.5,1628.5 C 2407.38,1660.1 2390.71,1686.1 2365.5,1706.5C 2364.47,1706.1 2364.31,1705.44 2365,1704.5C 2381.78,1678.44 2398.62,1653.11 2415.5,1628.5 Z"/></g>
<g><path style="opacity:0.995" fill="#e81d62" d="M 2194.5,1742.5 C 2196.75,1743.96 2196.42,1745.46 2193.5,1747C 2122.08,1796.36 2051.08,1846.2 1980.5,1896.5C 1931.54,1905.49 1883.87,1919.33 1837.5,1938C 1774.59,1968.79 1711.92,2000.12 1649.5,2032C 1472.64,2121.97 1284.98,2163.31 1086.5,2156C 1073.47,2155.04 1060.47,2153.88 1047.5,2152.5C 1045.24,2151.78 1042.9,2151.45 1040.5,2151.5C 1037.54,2150.84 1034.54,2150.51 1031.5,2150.5C 1028.17,2150.5 1024.83,2150.5 1021.5,2150.5C 1016.9,2150.28 1012.57,2150.95 1008.5,2152.5C 1005.99,2152.93 1003.66,2153.59 1001.5,2154.5C 993.302,2156.6 985.968,2160.27 979.5,2165.5C 953.764,2185.32 941.764,2211.65 943.5,2244.5C 944.557,2251.17 945.723,2257.84 947,2264.5C 947.278,2265.42 947.778,2266.08 948.5,2266.5C 949.044,2270.47 950.377,2274.13 952.5,2277.5C 953.596,2280.03 954.929,2282.36 956.5,2284.5C 958.252,2287.67 960.252,2290.67 962.5,2293.5C 964.167,2295.83 966.167,2297.83 968.5,2299.5C 970.549,2302.55 973.216,2304.88 976.5,2306.5C 976.833,2307.17 977.167,2307.83 977.5,2308.5C 913.738,2272.36 875.571,2218.03 863,2145.5C 859.391,2074.19 889.557,2023.03 953.5,1992C 978.586,1981.61 1004.59,1978.28 1031.5,1982C 1200.56,2001.8 1362.89,1977.13 1518.5,1908C 1542.29,1897.27 1565.95,1886.27 1589.5,1875C 1644.83,1847 1700.17,1819 1755.5,1791C 1861.34,1743.12 1972.34,1720.46 2088.5,1723C 2124.9,1724.45 2160.23,1730.95 2194.5,1742.5 Z"/></g>
<g><path style="opacity:0.994" fill="#e41d61" d="M 2194.5,1742.5 C 2204.72,1745.34 2214.38,1749.34 2223.5,1754.5C 2159.05,1799.11 2094.71,1843.95 2030.5,1889C 2032.81,1889.5 2035.14,1889.66 2037.5,1889.5C 2018.59,1891.41 1999.59,1893.74 1980.5,1896.5C 2051.08,1846.2 2122.08,1796.36 2193.5,1747C 2196.42,1745.46 2196.75,1743.96 2194.5,1742.5 Z"/></g>
<g><path style="opacity:0.999" fill="#dd1c5e" d="M 2223.5,1754.5 C 2228.76,1755.8 2233.43,1758.13 2237.5,1761.5C 2236.13,1761.34 2234.79,1761.51 2233.5,1762C 2173.5,1804 2113.5,1846 2053.5,1888C 2059.49,1888.5 2065.49,1888.67 2071.5,1888.5C 2074.06,1888.2 2076.39,1888.53 2078.5,1889.5C 2064.83,1889.5 2051.17,1889.5 2037.5,1889.5C 2035.14,1889.66 2032.81,1889.5 2030.5,1889C 2094.71,1843.95 2159.05,1799.11 2223.5,1754.5 Z"/></g>
<g><path style="opacity:1" fill="#d71b5b" d="M 2237.5,1761.5 C 2240.33,1762.08 2242.66,1763.41 2244.5,1765.5C 2241.5,1768.53 2238.16,1771.37 2234.5,1774C 2179.75,1811.7 2125.42,1849.86 2071.5,1888.5C 2065.49,1888.67 2059.49,1888.5 2053.5,1888C 2113.5,1846 2173.5,1804 2233.5,1762C 2234.79,1761.51 2236.13,1761.34 2237.5,1761.5 Z"/></g>
<g><path style="opacity:1" fill="#d11b59" d="M 2244.5,1765.5 C 2246.78,1765.98 2248.78,1766.98 2250.5,1768.5C 2250.54,1769.58 2250.87,1770.58 2251.5,1771.5C 2195.97,1810.86 2140.31,1850.03 2084.5,1889C 2087.04,1889.19 2089.37,1889.69 2091.5,1890.5C 2087.1,1890.71 2082.77,1890.37 2078.5,1889.5C 2076.39,1888.53 2074.06,1888.2 2071.5,1888.5C 2125.42,1849.86 2179.75,1811.7 2234.5,1774C 2238.16,1771.37 2241.5,1768.53 2244.5,1765.5 Z"/></g>
<g><path style="opacity:1" fill="#cb1a56" d="M 2250.5,1768.5 C 2254.22,1770.35 2257.55,1772.69 2260.5,1775.5C 2207.16,1814.36 2153.16,1852.53 2098.5,1890C 2101.31,1890.78 2103.98,1891.62 2106.5,1892.5C 2101.4,1892.24 2096.4,1891.57 2091.5,1890.5C 2089.37,1889.69 2087.04,1889.19 2084.5,1889C 2140.31,1850.03 2195.97,1810.86 2251.5,1771.5C 2250.87,1770.58 2250.54,1769.58 2250.5,1768.5 Z"/></g>
<g><path style="opacity:1" fill="#c41953" d="M 2260.5,1775.5 C 2262.4,1775.74 2263.74,1776.74 2264.5,1778.5C 2265.88,1780.27 2265.55,1781.77 2263.5,1783C 2211.83,1819.17 2160.17,1855.33 2108.5,1891.5C 2109.24,1892.18 2109.91,1892.85 2110.5,1893.5C 2108.9,1893.77 2107.57,1893.43 2106.5,1892.5C 2103.98,1891.62 2101.31,1890.78 2098.5,1890C 2153.16,1852.53 2207.16,1814.36 2260.5,1775.5 Z"/></g>
<g><path style="opacity:1" fill="#be1850" d="M 2264.5,1778.5 C 2266.4,1778.74 2267.74,1779.74 2268.5,1781.5C 2270.42,1783.09 2270.76,1784.92 2269.5,1787C 2218.17,1822.14 2167.51,1857.97 2117.5,1894.5C 2115.1,1894.55 2112.76,1894.22 2110.5,1893.5C 2109.91,1892.85 2109.24,1892.18 2108.5,1891.5C 2160.17,1855.33 2211.83,1819.17 2263.5,1783C 2265.55,1781.77 2265.88,1780.27 2264.5,1778.5 Z"/></g>
<g><path style="opacity:1" fill="#b8174e" d="M 2268.5,1781.5 C 2271.15,1783.14 2273.82,1784.81 2276.5,1786.5C 2271.54,1792.46 2265.87,1797.79 2259.5,1802.5C 2259.44,1801.96 2259.11,1801.62 2258.5,1801.5C 2214.01,1832.91 2169.34,1864.08 2124.5,1895C 2125.06,1895.38 2125.39,1895.88 2125.5,1896.5C 2122.57,1896.43 2119.91,1895.77 2117.5,1894.5C 2167.51,1857.97 2218.17,1822.14 2269.5,1787C 2270.76,1784.92 2270.42,1783.09 2268.5,1781.5 Z"/></g>
<g><path style="opacity:1" fill="#b2174c" d="M 2259.5,1802.5 C 2245.25,1815.96 2230.58,1828.96 2215.5,1841.5C 2215.44,1840.96 2215.11,1840.62 2214.5,1840.5C 2186.85,1859.5 2159.51,1878.84 2132.5,1898.5C 2129.85,1898.59 2127.51,1897.92 2125.5,1896.5C 2125.39,1895.88 2125.06,1895.38 2124.5,1895C 2169.34,1864.08 2214.01,1832.91 2258.5,1801.5C 2259.11,1801.62 2259.44,1801.96 2259.5,1802.5 Z"/></g>
<g><path style="opacity:1" fill="#ab1549" d="M 2215.5,1841.5 C 2192.73,1861.76 2170.06,1882.26 2147.5,1903C 2146.55,1903.48 2145.55,1903.65 2144.5,1903.5C 2140.43,1901.82 2136.43,1900.15 2132.5,1898.5C 2159.51,1878.84 2186.85,1859.5 2214.5,1840.5C 2215.11,1840.62 2215.44,1840.96 2215.5,1841.5 Z"/></g>
<g><path style="opacity:1" fill="#b9174e" d="M 1021.5,2150.5 C 1000.78,2194.93 979.784,2239.27 958.5,2283.5C 958.043,2284.3 957.376,2284.63 956.5,2284.5C 954.929,2282.36 953.596,2280.03 952.5,2277.5C 972.998,2236.5 992.998,2195.17 1012.5,2153.5C 1011.31,2152.57 1009.98,2152.24 1008.5,2152.5C 1012.57,2150.95 1016.9,2150.28 1021.5,2150.5 Z"/></g>
<g><path style="opacity:1" fill="#bf1851" d="M 1021.5,2150.5 C 1024.83,2150.5 1028.17,2150.5 1031.5,2150.5C 1008.74,2198.35 985.739,2246.02 962.5,2293.5C 960.252,2290.67 958.252,2287.67 956.5,2284.5C 957.376,2284.63 958.043,2284.3 958.5,2283.5C 979.784,2239.27 1000.78,2194.93 1021.5,2150.5 Z"/></g>
<g><path style="opacity:1" fill="#c41953" d="M 1031.5,2150.5 C 1034.54,2150.51 1037.54,2150.84 1040.5,2151.5C 1017,2201.17 992.995,2250.51 968.5,2299.5C 966.167,2297.83 964.167,2295.83 962.5,2293.5C 985.739,2246.02 1008.74,2198.35 1031.5,2150.5 Z"/></g>
<g><path style="opacity:0.999" fill="#cb1a56" d="M 1040.5,2151.5 C 1042.9,2151.45 1045.24,2151.78 1047.5,2152.5C 1048.5,2153.83 1049.5,2155.17 1050.5,2156.5C 1027.12,2206.27 1003.45,2255.93 979.5,2305.5C 978.675,2306.39 977.675,2306.72 976.5,2306.5C 973.216,2304.88 970.549,2302.55 968.5,2299.5C 992.995,2250.51 1017,2201.17 1040.5,2151.5 Z"/></g>
<g><path style="opacity:1" fill="#b2174c" d="M 1008.5,2152.5 C 1009.98,2152.24 1011.31,2152.57 1012.5,2153.5C 992.998,2195.17 972.998,2236.5 952.5,2277.5C 950.377,2274.13 949.044,2270.47 948.5,2266.5C 967.394,2229.39 985.061,2192.06 1001.5,2154.5C 1003.66,2153.59 1005.99,2152.93 1008.5,2152.5 Z"/></g>
<g><path style="opacity:1" fill="#a91548" d="M 1001.5,2154.5 C 985.061,2192.06 967.394,2229.39 948.5,2266.5C 947.778,2266.08 947.278,2265.42 947,2264.5C 945.723,2257.84 944.557,2251.17 943.5,2244.5C 956.648,2218.87 969.315,2192.87 981.5,2166.5C 981.043,2165.7 980.376,2165.37 979.5,2165.5C 985.968,2160.27 993.302,2156.6 1001.5,2154.5 Z"/></g>
<g><path style="opacity:0.999" fill="#d11b59" d="M 1050.5,2156.5 C 1053.81,2158.48 1056.81,2160.82 1059.5,2163.5C 1035.23,2213.71 1011.23,2264.04 987.5,2314.5C 983.827,2313 980.494,2311 977.5,2308.5C 977.167,2307.83 976.833,2307.17 976.5,2306.5C 977.675,2306.72 978.675,2306.39 979.5,2305.5C 1003.45,2255.93 1027.12,2206.27 1050.5,2156.5 Z"/></g>
<g><path style="opacity:0.998" fill="#d71b5b" d="M 1059.5,2163.5 C 1063.33,2165.25 1067,2167.25 1070.5,2169.5C 1046.64,2219.38 1022.64,2269.22 998.5,2319C 999.056,2319.38 999.389,2319.88 999.5,2320.5C 995.182,2319.01 991.182,2317.01 987.5,2314.5C 1011.23,2264.04 1035.23,2213.71 1059.5,2163.5 Z"/></g>
<g><path style="opacity:1" fill="#9e1443" d="M 979.5,2165.5 C 980.376,2165.37 981.043,2165.7 981.5,2166.5C 969.315,2192.87 956.648,2218.87 943.5,2244.5C 941.764,2211.65 953.764,2185.32 979.5,2165.5 Z"/></g>
<g><path style="opacity:0.997" fill="#dd1c5e" d="M 1070.5,2169.5 C 1074.95,2170.89 1079.28,2172.56 1083.5,2174.5C 1084.41,2175.74 1084.58,2177.07 1084,2178.5C 1060.22,2227.73 1036.72,2277.07 1013.5,2326.5C 1008.51,2325.07 1003.84,2323.07 999.5,2320.5C 999.389,2319.88 999.056,2319.38 998.5,2319C 1022.64,2269.22 1046.64,2219.38 1070.5,2169.5 Z"/></g>
<g><path style="opacity:0.997" fill="#e41d61" d="M 1083.5,2174.5 C 1093.57,2177.74 1103.23,2181.74 1112.5,2186.5C 1089.28,2235.93 1065.78,2285.27 1042,2334.5C 1040.99,2335.34 1039.82,2335.67 1038.5,2335.5C 1029.87,2333.07 1021.54,2330.07 1013.5,2326.5C 1036.72,2277.07 1060.22,2227.73 1084,2178.5C 1084.58,2177.07 1084.41,2175.74 1083.5,2174.5 Z"/></g>
<g><path style="opacity:0.994" fill="#e81e62" d="M 1112.5,2186.5 C 1165.1,2208.93 1209.93,2241.93 1247,2285.5C 1270.97,2316.76 1288.63,2351.43 1300,2389.5C 1306.32,2419.13 1317.32,2446.79 1333,2472.5C 1339.69,2482.55 1346.85,2492.22 1354.5,2501.5C 1352.4,2500.04 1350.4,2500.2 1348.5,2502C 1308.46,2536.38 1268.13,2570.38 1227.5,2604C 1226.18,2604.82 1225.51,2605.98 1225.5,2607.5C 1195.07,2571.35 1171.24,2531.02 1154,2486.5C 1146.73,2465.01 1140.06,2443.35 1134,2421.5C 1117.22,2387.72 1092.05,2362.22 1058.5,2345C 1051.62,2342.06 1044.95,2338.89 1038.5,2335.5C 1039.82,2335.67 1040.99,2335.34 1042,2334.5C 1065.78,2285.27 1089.28,2235.93 1112.5,2186.5 Z"/></g>
<g><path style="opacity:0.996" fill="#e41d61" d="M 1354.5,2501.5 C 1358.46,2506.8 1362.79,2511.8 1367.5,2516.5C 1365.96,2516.3 1364.62,2515.63 1363.5,2514.5C 1321.21,2549.46 1279.21,2584.79 1237.5,2620.5C 1238.95,2621.94 1239.95,2623.61 1240.5,2625.5C 1234.75,2620.09 1229.75,2614.09 1225.5,2607.5C 1225.51,2605.98 1226.18,2604.82 1227.5,2604C 1268.13,2570.38 1308.46,2536.38 1348.5,2502C 1350.4,2500.2 1352.4,2500.04 1354.5,2501.5 Z"/></g>
<g><path style="opacity:0.999" fill="#dd1c5e" d="M 1367.5,2516.5 C 1369.83,2518.17 1371.83,2520.17 1373.5,2522.5C 1372.42,2522.46 1371.42,2522.13 1370.5,2521.5C 1330.65,2555.19 1290.65,2588.69 1250.5,2622C 1247.88,2624.11 1245.88,2626.61 1244.5,2629.5C 1242.83,2628.5 1241.5,2627.17 1240.5,2625.5C 1239.95,2623.61 1238.95,2621.94 1237.5,2620.5C 1279.21,2584.79 1321.21,2549.46 1363.5,2514.5C 1364.62,2515.63 1365.96,2516.3 1367.5,2516.5 Z"/></g>
<g><path style="opacity:1" fill="#d71b5b" d="M 1373.5,2522.5 C 1375.83,2524.17 1377.83,2526.17 1379.5,2528.5C 1377.98,2528.49 1376.82,2527.82 1376,2526.5C 1333.67,2562.4 1291.5,2598.4 1249.5,2634.5C 1247.5,2633.17 1245.83,2631.5 1244.5,2629.5C 1245.88,2626.61 1247.88,2624.11 1250.5,2622C 1290.65,2588.69 1330.65,2555.19 1370.5,2521.5C 1371.42,2522.13 1372.42,2522.46 1373.5,2522.5 Z"/></g>
<g><path style="opacity:1" fill="#d11b59" d="M 1379.5,2528.5 C 1380.83,2529.17 1381.83,2530.17 1382.5,2531.5C 1380.74,2532.07 1379.08,2532.91 1377.5,2534C 1337.13,2568.71 1296.46,2603.04 1255.5,2637C 1254.59,2638.41 1254.59,2639.91 1255.5,2641.5C 1252.76,2639.76 1250.76,2637.43 1249.5,2634.5C 1291.5,2598.4 1333.67,2562.4 1376,2526.5C 1376.82,2527.82 1377.98,2528.49 1379.5,2528.5 Z"/></g>
<g><path style="opacity:1" fill="#cb1a56" d="M 1382.5,2531.5 C 1385.11,2532.44 1387.11,2534.11 1388.5,2536.5C 1387.45,2536.35 1386.45,2536.52 1385.5,2537C 1343.01,2572.32 1301.01,2608.16 1259.5,2644.5C 1257.77,2643.97 1256.44,2642.97 1255.5,2641.5C 1254.59,2639.91 1254.59,2638.41 1255.5,2637C 1296.46,2603.04 1337.13,2568.71 1377.5,2534C 1379.08,2532.91 1380.74,2532.07 1382.5,2531.5 Z"/></g>
<g><path style="opacity:1" fill="#c41953" d="M 1388.5,2536.5 C 1391.12,2537.79 1393.45,2539.45 1395.5,2541.5C 1394.5,2541.59 1393.67,2541.25 1393,2540.5C 1391.17,2542.07 1389.01,2542.91 1386.5,2543C 1346.13,2577.71 1305.46,2612.04 1264.5,2646C 1263.75,2646.67 1263.41,2647.5 1263.5,2648.5C 1261.83,2647.5 1260.5,2646.17 1259.5,2644.5C 1301.01,2608.16 1343.01,2572.32 1385.5,2537C 1386.45,2536.52 1387.45,2536.35 1388.5,2536.5 Z"/></g>
<g><path style="opacity:1" fill="#bc1850" d="M 1395.5,2541.5 C 1398.14,2542.81 1400.47,2544.48 1402.5,2546.5C 1401.15,2545.97 1399.82,2545.81 1398.5,2546C 1355.83,2582 1313.17,2618 1270.5,2654C 1271.25,2654.67 1271.59,2655.5 1271.5,2656.5C 1268.5,2654.17 1265.83,2651.5 1263.5,2648.5C 1263.41,2647.5 1263.75,2646.67 1264.5,2646C 1305.46,2612.04 1346.13,2577.71 1386.5,2543C 1389.01,2542.91 1391.17,2542.07 1393,2540.5C 1393.67,2541.25 1394.5,2541.59 1395.5,2541.5 Z"/></g>
<g><path style="opacity:1" fill="#b2174c" d="M 1402.5,2546.5 C 1404.67,2546.75 1406.34,2547.75 1407.5,2549.5C 1406.42,2549.46 1405.42,2549.13 1404.5,2548.5C 1362.02,2583.81 1319.69,2619.31 1277.5,2655C 1275.96,2656.11 1275.3,2657.61 1275.5,2659.5C 1274.17,2658.5 1272.83,2657.5 1271.5,2656.5C 1271.59,2655.5 1271.25,2654.67 1270.5,2654C 1313.17,2618 1355.83,2582 1398.5,2546C 1399.82,2545.81 1401.15,2545.97 1402.5,2546.5 Z"/></g>
<g><path style="opacity:0.999" fill="#a71547" d="M 1407.5,2549.5 C 1409.78,2549.98 1411.78,2550.98 1413.5,2552.5C 1413.5,2552.83 1413.5,2553.17 1413.5,2553.5C 1412.45,2553.35 1411.45,2553.52 1410.5,2554C 1367.5,2590.33 1324.5,2626.67 1281.5,2663C 1282.06,2663.38 1282.39,2663.88 1282.5,2664.5C 1279.88,2663.21 1277.55,2661.55 1275.5,2659.5C 1275.3,2657.61 1275.96,2656.11 1277.5,2655C 1319.69,2619.31 1362.02,2583.81 1404.5,2548.5C 1405.42,2549.13 1406.42,2549.46 1407.5,2549.5 Z"/></g>
<g><path style="opacity:1" fill="#9f1443" d="M 1413.5,2553.5 C 1413.61,2554.12 1413.94,2554.62 1414.5,2555C 1373.2,2591.3 1332.2,2627.96 1291.5,2665C 1289.78,2666.56 1287.78,2667.39 1285.5,2667.5C 1284.17,2666.83 1283.17,2665.83 1282.5,2664.5C 1282.39,2663.88 1282.06,2663.38 1281.5,2663C 1324.5,2626.67 1367.5,2590.33 1410.5,2554C 1411.45,2553.52 1412.45,2553.35 1413.5,2553.5 Z"/></g>
<g><path style="opacity:0.998" fill="#c21852" d="M 2260.5,2614.5 C 2263.14,2615.81 2265.47,2617.48 2267.5,2619.5C 2264.98,2619.76 2262.65,2620.59 2260.5,2622C 2211.33,2653.08 2162.33,2684.42 2113.5,2716C 2114.38,2716.71 2115.05,2717.54 2115.5,2718.5C 2111.98,2717.24 2108.98,2715.24 2106.5,2712.5C 2107.96,2710.22 2109.96,2708.38 2112.5,2707C 2155.17,2680 2197.83,2653 2240.5,2626C 2241.74,2625.31 2241.74,2624.81 2240.5,2624.5C 2246.63,2620.1 2253.3,2616.77 2260.5,2614.5 Z"/></g>
<g><path style="opacity:0.999" fill="#cb1a56" d="M 2267.5,2619.5 C 2269.06,2619.73 2270.4,2620.4 2271.5,2621.5C 2221.01,2653.8 2170.34,2685.97 2119.5,2718C 2118.75,2718.67 2118.41,2719.5 2118.5,2720.5C 2116.97,2720.57 2115.97,2719.91 2115.5,2718.5C 2115.05,2717.54 2114.38,2716.71 2113.5,2716C 2162.33,2684.42 2211.33,2653.08 2260.5,2622C 2262.65,2620.59 2264.98,2619.76 2267.5,2619.5 Z"/></g>
<g><path style="opacity:0.998" fill="#d11a59" d="M 2271.5,2621.5 C 2273.39,2622.6 2275.06,2623.94 2276.5,2625.5C 2272.87,2626.28 2269.54,2627.78 2266.5,2630C 2218.5,2660.67 2170.5,2691.33 2122.5,2722C 2123.38,2722.71 2124.05,2723.54 2124.5,2724.5C 2122.15,2723.66 2120.15,2722.33 2118.5,2720.5C 2118.41,2719.5 2118.75,2718.67 2119.5,2718C 2170.34,2685.97 2221.01,2653.8 2271.5,2621.5 Z"/></g>
<g><path style="opacity:0.999" fill="#b7174e" d="M 2240.5,2624.5 C 2241.74,2624.81 2241.74,2625.31 2240.5,2626C 2197.83,2653 2155.17,2680 2112.5,2707C 2109.96,2708.38 2107.96,2710.22 2106.5,2712.5C 2104.03,2711.43 2101.7,2710.1 2099.5,2708.5C 2100.96,2706.22 2102.96,2704.38 2105.5,2703C 2119.83,2694 2134.17,2685 2148.5,2676C 2147.91,2675.54 2147.24,2675.37 2146.5,2675.5C 2177.54,2657.98 2208.87,2640.98 2240.5,2624.5 Z"/></g>
<g><path style="opacity:0.998" fill="#d71b5b" d="M 2276.5,2625.5 C 2278.43,2626.11 2280.1,2627.11 2281.5,2628.5C 2230.47,2660.1 2179.64,2692.1 2129,2724.5C 2128.52,2725.45 2128.35,2726.45 2128.5,2727.5C 2126.77,2726.97 2125.44,2725.97 2124.5,2724.5C 2124.05,2723.54 2123.38,2722.71 2122.5,2722C 2170.5,2691.33 2218.5,2660.67 2266.5,2630C 2269.54,2627.78 2272.87,2626.28 2276.5,2625.5 Z"/></g>
<g><path style="opacity:0.998" fill="#dd1c5e" d="M 2281.5,2628.5 C 2284.14,2629.81 2286.47,2631.48 2288.5,2633.5C 2285.26,2633.88 2282.26,2635.05 2279.5,2637C 2231.17,2668 2182.83,2699 2134.5,2730C 2135.38,2730.71 2136.05,2731.54 2136.5,2732.5C 2133.49,2731.33 2130.82,2729.66 2128.5,2727.5C 2128.35,2726.45 2128.52,2725.45 2129,2724.5C 2179.64,2692.1 2230.47,2660.1 2281.5,2628.5 Z"/></g>
<g><path style="opacity:0.996" fill="#e41d61" d="M 2288.5,2633.5 C 2292.44,2635.45 2296.11,2637.78 2299.5,2640.5C 2248.98,2672.84 2198.32,2705 2147.5,2737C 2146.75,2737.67 2146.41,2738.5 2146.5,2739.5C 2143.13,2737.15 2139.8,2734.82 2136.5,2732.5C 2136.05,2731.54 2135.38,2730.71 2134.5,2730C 2182.83,2699 2231.17,2668 2279.5,2637C 2282.26,2635.05 2285.26,2633.88 2288.5,2633.5 Z"/></g>
<g><path style="opacity:0.994" fill="#e81d62" d="M 2299.5,2640.5 C 2346.44,2671.31 2393.44,2702.15 2440.5,2733C 2494.61,2775.99 2512.77,2831.16 2495,2898.5C 2475.84,2952.99 2438.01,2986.16 2381.5,2998C 2344.21,3000.94 2306.88,3003.11 2269.5,3004.5C 2269.5,3004.17 2269.5,3003.83 2269.5,3003.5C 2273.42,3003.57 2277.09,3002.9 2280.5,3001.5C 2284.05,3000.87 2287.38,2999.87 2290.5,2998.5C 2296.9,2996.73 2302.57,2993.73 2307.5,2989.5C 2321.99,2980.23 2332.49,2967.56 2339,2951.5C 2345.3,2934.64 2347.14,2917.31 2344.5,2899.5C 2343.02,2891.4 2340.36,2883.73 2336.5,2876.5C 2334.73,2873.29 2332.73,2870.29 2330.5,2867.5C 2328.85,2864.53 2326.85,2861.86 2324.5,2859.5C 2322.83,2857.17 2320.83,2855.17 2318.5,2853.5C 2316.39,2851.27 2314.06,2849.27 2311.5,2847.5C 2308.71,2845.27 2305.71,2843.27 2302.5,2841.5C 2299.95,2839.06 2296.95,2837.39 2293.5,2836.5C 2244.71,2803.93 2195.71,2771.6 2146.5,2739.5C 2146.41,2738.5 2146.75,2737.67 2147.5,2737C 2198.32,2705 2248.98,2672.84 2299.5,2640.5 Z"/></g>
<g><path style="opacity:1" fill="#ac1649" d="M 2146.5,2675.5 C 2147.24,2675.37 2147.91,2675.54 2148.5,2676C 2134.17,2685 2119.83,2694 2105.5,2703C 2102.96,2704.38 2100.96,2706.22 2099.5,2708.5C 2097.5,2707.17 2095.5,2705.83 2093.5,2704.5C 2110.97,2694.6 2128.64,2684.93 2146.5,2675.5 Z"/></g>
<g><path style="opacity:0.996" fill="#e41d60" d="M 1002.5,2733.5 C 1006.67,2739.16 1010.33,2745.16 1013.5,2751.5C 1015.17,2754.83 1016.83,2758.17 1018.5,2761.5C 1018.14,2763.37 1017.14,2764.87 1015.5,2766C 975.305,2802.03 935.305,2838.2 895.5,2874.5C 889.421,2866.68 884.088,2858.35 879.5,2849.5C 919.338,2812.16 959.671,2775.33 1000.5,2739C 1002.16,2737.56 1002.82,2735.72 1002.5,2733.5 Z"/></g>
<g><path style="opacity:0.076" fill="#be1850" d="M 1013.5,2751.5 C 1017.99,2757.15 1021.99,2763.15 1025.5,2769.5C 1023.17,2766.83 1020.83,2764.17 1018.5,2761.5C 1016.83,2758.17 1015.17,2754.83 1013.5,2751.5 Z"/></g>
<g><path style="opacity:0.998" fill="#dd1c5e" d="M 1018.5,2761.5 C 1020.83,2764.17 1023.17,2766.83 1025.5,2769.5C 1026.91,2769.97 1027.57,2770.97 1027.5,2772.5C 1027.66,2773.87 1027.49,2775.21 1027,2776.5C 986.667,2813.5 946.333,2850.5 906,2887.5C 905.292,2886.62 904.458,2885.95 903.5,2885.5C 900.601,2882.05 897.934,2878.38 895.5,2874.5C 935.305,2838.2 975.305,2802.03 1015.5,2766C 1017.14,2764.87 1018.14,2763.37 1018.5,2761.5 Z"/></g>
<g><path style="opacity:1" fill="#d71b5b" d="M 1027.5,2772.5 C 1030.66,2776.15 1033.33,2780.15 1035.5,2784.5C 1032.48,2789.03 1028.82,2793.2 1024.5,2797C 987.833,2830.33 951.167,2863.67 914.5,2897C 913.181,2897.19 911.847,2897.03 910.5,2896.5C 907.745,2893.08 905.412,2889.42 903.5,2885.5C 904.458,2885.95 905.292,2886.62 906,2887.5C 946.333,2850.5 986.667,2813.5 1027,2776.5C 1027.49,2775.21 1027.66,2773.87 1027.5,2772.5 Z"/></g>
<g><path style="opacity:1" fill="#d11a58" d="M 1035.5,2784.5 C 1037.55,2786.55 1039.21,2788.88 1040.5,2791.5C 1041.54,2793.39 1041.54,2795.22 1040.5,2797C 1000.2,2832.96 960.201,2869.3 920.5,2906C 919.552,2906.48 918.552,2906.65 917.5,2906.5C 915.167,2903.17 912.833,2899.83 910.5,2896.5C 911.847,2897.03 913.181,2897.19 914.5,2897C 951.167,2863.67 987.833,2830.33 1024.5,2797C 1028.82,2793.2 1032.48,2789.03 1035.5,2784.5 Z"/></g>
<g><path style="opacity:1" fill="#ca1a56" d="M 1040.5,2791.5 C 1043.32,2794.48 1045.66,2797.81 1047.5,2801.5C 1048.03,2802.85 1048.19,2804.18 1048,2805.5C 1007.58,2843.1 966.742,2880.1 925.5,2916.5C 922.484,2913.48 919.817,2910.15 917.5,2906.5C 918.552,2906.65 919.552,2906.48 920.5,2906C 960.201,2869.3 1000.2,2832.96 1040.5,2797C 1041.54,2795.22 1041.54,2793.39 1040.5,2791.5 Z"/></g>
<g><path style="opacity:1" fill="#c41953" d="M 1047.5,2801.5 C 1049.55,2803.55 1051.21,2805.88 1052.5,2808.5C 1053.03,2809.85 1053.19,2811.18 1053,2812.5C 1012.67,2849.5 972.333,2886.5 932,2923.5C 931.329,2922.75 930.496,2922.41 929.5,2922.5C 927.674,2920.85 926.34,2918.85 925.5,2916.5C 966.742,2880.1 1007.58,2843.1 1048,2805.5C 1048.19,2804.18 1048.03,2802.85 1047.5,2801.5 Z"/></g>
<g><path style="opacity:1" fill="#bd1850" d="M 1052.5,2808.5 C 1054.9,2810.3 1056.57,2812.63 1057.5,2815.5C 1058.03,2816.85 1058.19,2818.18 1058,2819.5C 1017.58,2857.1 976.742,2894.1 935.5,2930.5C 933.147,2928.14 931.147,2925.47 929.5,2922.5C 930.496,2922.41 931.329,2922.75 932,2923.5C 972.333,2886.5 1012.67,2849.5 1053,2812.5C 1053.19,2811.18 1053.03,2809.85 1052.5,2808.5 Z"/></g>
<g><path style="opacity:1" fill="#b8174e" d="M 1057.5,2815.5 C 1059.98,2817.8 1061.98,2820.47 1063.5,2823.5C 1062.46,2826.06 1060.79,2828.22 1058.5,2830C 1019.03,2865.13 979.868,2900.63 941,2936.5C 940.583,2935.24 939.75,2934.58 938.5,2934.5C 937.026,2933.56 936.026,2932.23 935.5,2930.5C 976.742,2894.1 1017.58,2857.1 1058,2819.5C 1058.19,2818.18 1058.03,2816.85 1057.5,2815.5 Z"/></g>
<g><path style="opacity:1" fill="#b1164b" d="M 1063.5,2823.5 C 1065.26,2824.26 1066.26,2825.6 1066.5,2827.5C 1066.7,2829.04 1067.37,2830.38 1068.5,2831.5C 1029.01,2868.16 989.343,2904.66 949.5,2941C 947.975,2942.01 946.308,2942.51 944.5,2942.5C 942.147,2940.14 940.147,2937.47 938.5,2934.5C 939.75,2934.58 940.583,2935.24 941,2936.5C 979.868,2900.63 1019.03,2865.13 1058.5,2830C 1060.79,2828.22 1062.46,2826.06 1063.5,2823.5 Z"/></g>
<g><path style="opacity:1" fill="#aa1548" d="M 1066.5,2827.5 C 1068.98,2829.8 1070.98,2832.47 1072.5,2835.5C 1073.17,2836.85 1073.17,2838.01 1072.5,2839C 1034.5,2873.67 996.5,2908.33 958.5,2943C 955.603,2945.41 952.603,2947.58 949.5,2949.5C 947.445,2947.45 945.779,2945.11 944.5,2942.5C 946.308,2942.51 947.975,2942.01 949.5,2941C 989.343,2904.66 1029.01,2868.16 1068.5,2831.5C 1067.37,2830.38 1066.7,2829.04 1066.5,2827.5 Z"/></g>
<g><path style="opacity:1" fill="#b8174e" d="M 2287.5,2836.5 C 2289.17,2836.5 2290.83,2836.5 2292.5,2836.5C 2269.12,2892.62 2246.78,2949.29 2225.5,3006.5C 2221.77,3006.82 2218.11,3006.49 2214.5,3005.5C 2236.57,2949.62 2258.24,2893.62 2279.5,2837.5C 2282.39,2837.81 2285.05,2837.47 2287.5,2836.5 Z"/></g>
<g><path style="opacity:1" fill="#b2174c" d="M 2292.5,2836.5 C 2292.83,2836.5 2293.17,2836.5 2293.5,2836.5C 2296.95,2837.39 2299.95,2839.06 2302.5,2841.5C 2280.21,2895.68 2258.88,2950.34 2238.5,3005.5C 2241.83,3005.5 2245.17,3005.5 2248.5,3005.5C 2242.36,3006.49 2236.02,3006.82 2229.5,3006.5C 2228.17,3006.5 2226.83,3006.5 2225.5,3006.5C 2246.78,2949.29 2269.12,2892.62 2292.5,2836.5 Z"/></g>
<g><path style="opacity:1" fill="#be1850" d="M 2287.5,2836.5 C 2285.05,2837.47 2282.39,2837.81 2279.5,2837.5C 2258.24,2893.62 2236.57,2949.62 2214.5,3005.5C 2218.11,3006.49 2221.77,3006.82 2225.5,3006.5C 2226.83,3006.5 2228.17,3006.5 2229.5,3006.5C 2223.69,3007.49 2217.69,3007.82 2211.5,3007.5C 2208.15,3007.67 2204.82,3007.5 2201.5,3007C 2223.39,2952.01 2244.89,2896.84 2266,2841.5C 2266.69,2839.65 2267.86,2838.32 2269.5,2837.5C 2275.5,2837.17 2281.5,2836.83 2287.5,2836.5 Z"/></g>
<g><path style="opacity:0.998" fill="#a51546" d="M 1072.5,2835.5 C 1074.26,2836.26 1075.26,2837.6 1075.5,2839.5C 1075.51,2841.02 1076.18,2842.18 1077.5,2843C 1036,2880 995.004,2917.5 954.5,2955.5C 952.844,2953.54 951.177,2951.54 949.5,2949.5C 952.603,2947.58 955.603,2945.41 958.5,2943C 996.5,2908.33 1034.5,2873.67 1072.5,2839C 1073.17,2838.01 1073.17,2836.85 1072.5,2835.5 Z"/></g>
<g><path style="opacity:0.999" fill="#cb1a56" d="M 2256.5,2838.5 C 2255.83,2839.27 2254.99,2839.93 2254,2840.5C 2232.2,2896.42 2210.7,2952.42 2189.5,3008.5C 2190.5,3008.5 2191.5,3008.5 2192.5,3008.5C 2186.69,3009.49 2180.69,3009.82 2174.5,3009.5C 2173.45,3009.65 2172.45,3009.48 2171.5,3009C 2193,2953.85 2214.5,2898.68 2236,2843.5C 2236.69,2841.65 2237.86,2840.32 2239.5,2839.5C 2245.12,2838.65 2250.79,2838.31 2256.5,2838.5 Z"/></g>
<g><path style="opacity:1" fill="#c41953" d="M 2269.5,2837.5 C 2267.86,2838.32 2266.69,2839.65 2266,2841.5C 2244.89,2896.84 2223.39,2952.01 2201.5,3007C 2204.82,3007.5 2208.15,3007.67 2211.5,3007.5C 2205.36,3008.49 2199.02,3008.82 2192.5,3008.5C 2191.5,3008.5 2190.5,3008.5 2189.5,3008.5C 2210.7,2952.42 2232.2,2896.42 2254,2840.5C 2254.99,2839.93 2255.83,2839.27 2256.5,2838.5C 2260.8,2837.8 2265.13,2837.47 2269.5,2837.5 Z"/></g>
<g><path style="opacity:0.998" fill="#d11b59" d="M 2239.5,2839.5 C 2237.86,2840.32 2236.69,2841.65 2236,2843.5C 2214.5,2898.68 2193,2953.85 2171.5,3009C 2172.45,3009.48 2173.45,3009.65 2174.5,3009.5C 2168.36,3010.49 2162.02,3010.82 2155.5,3010.5C 2177.69,2953.92 2199.69,2897.25 2221.5,2840.5C 2227.45,2839.64 2233.45,2839.3 2239.5,2839.5 Z"/></g>
<g><path style="opacity:0.998" fill="#d71b5b" d="M 2221.5,2840.5 C 2199.69,2897.25 2177.69,2953.92 2155.5,3010.5C 2149.69,3011.49 2143.69,3011.82 2137.5,3011.5C 2159.16,2954.84 2180.83,2898.18 2202.5,2841.5C 2208.8,2840.68 2215.13,2840.35 2221.5,2840.5 Z"/></g>
<g><path style="opacity:0.997" fill="#dd1c5e" d="M 2202.5,2841.5 C 2180.83,2898.18 2159.16,2954.84 2137.5,3011.5C 2131.36,3012.49 2125.02,3012.82 2118.5,3012.5C 2116.71,3012.79 2115.05,3012.45 2113.5,3011.5C 2134.28,2958.94 2154.78,2906.28 2175,2853.5C 2176.34,2849.48 2178.17,2845.82 2180.5,2842.5C 2187.82,2841.96 2195.16,2841.63 2202.5,2841.5 Z"/></g>
<g><path style="opacity:1" fill="#ab1649" d="M 2302.5,2841.5 C 2305.71,2843.27 2308.71,2845.27 2311.5,2847.5C 2310.5,2847.47 2309.84,2847.97 2309.5,2849C 2289.2,2900.75 2269.2,2952.58 2249.5,3004.5C 2252.5,3004.5 2255.5,3004.5 2258.5,3004.5C 2261.17,3004.5 2263.83,3004.5 2266.5,3004.5C 2260.69,3005.49 2254.69,3005.82 2248.5,3005.5C 2245.17,3005.5 2241.83,3005.5 2238.5,3005.5C 2258.88,2950.34 2280.21,2895.68 2302.5,2841.5 Z"/></g>
<g><path style="opacity:0.996" fill="#e41d60" d="M 2180.5,2842.5 C 2178.17,2845.82 2176.34,2849.48 2175,2853.5C 2154.78,2906.28 2134.28,2958.94 2113.5,3011.5C 2115.05,3012.45 2116.71,3012.79 2118.5,3012.5C 2110.34,3013.42 2102,3014.09 2093.5,3014.5C 2090.99,3000.27 2088.32,2986.11 2085.5,2972C 2102.53,2930.09 2118.86,2887.92 2134.5,2845.5C 2149.76,2844.21 2165.09,2843.21 2180.5,2842.5 Z"/></g>
<g><path style="opacity:1" fill="#9f1443" d="M 1075.5,2839.5 C 1078.4,2842.31 1081.07,2845.31 1083.5,2848.5C 1082.8,2850.72 1081.46,2852.55 1079.5,2854C 1039.87,2888.63 1000.54,2923.63 961.5,2959C 960.255,2959.79 958.922,2960.29 957.5,2960.5C 956.752,2958.67 955.752,2957 954.5,2955.5C 995.004,2917.5 1036,2880 1077.5,2843C 1076.18,2842.18 1075.51,2841.02 1075.5,2839.5 Z"/></g>
<g><path style="opacity:0.995" fill="#e81e62" d="M 2134.5,2845.5 C 2118.86,2887.92 2102.53,2930.09 2085.5,2972C 2088.32,2986.11 2090.99,3000.27 2093.5,3014.5C 1955.84,3021.9 1818.17,3029.24 1680.5,3036.5C 1676.49,3036.67 1672.49,3036.5 1668.5,3036C 1764.33,2978.25 1860,2920.25 1955.5,2862C 1960.37,2858.9 1965.37,2856.4 1970.5,2854.5C 2025.08,2851.03 2079.75,2848.03 2134.5,2845.5 Z"/></g>
<g><path style="opacity:1" fill="#a51546" d="M 2311.5,2847.5 C 2314.06,2849.27 2316.39,2851.27 2318.5,2853.5C 2317.25,2853.58 2316.42,2854.24 2316,2855.5C 2296.73,2905.15 2277.56,2954.82 2258.5,3004.5C 2255.5,3004.5 2252.5,3004.5 2249.5,3004.5C 2269.2,2952.58 2289.2,2900.75 2309.5,2849C 2309.84,2847.97 2310.5,2847.47 2311.5,2847.5 Z"/></g>
<g><path style="opacity:0.996" fill="#e41d61" d="M 1970.5,2854.5 C 1965.37,2856.4 1960.37,2858.9 1955.5,2862C 1860,2920.25 1764.33,2978.25 1668.5,3036C 1672.49,3036.5 1676.49,3036.67 1680.5,3036.5C 1662.02,3038.19 1643.36,3039.19 1624.5,3039.5C 1619.78,3039.77 1619.45,3038.94 1623.5,3037C 1721.5,2977.67 1819.5,2918.33 1917.5,2859C 1921.91,2857.96 1926.24,2857.13 1930.5,2856.5C 1943.8,2855.38 1957.13,2854.71 1970.5,2854.5 Z"/></g>
<g><path style="opacity:1" fill="#9f1443" d="M 2318.5,2853.5 C 2320.83,2855.17 2322.83,2857.17 2324.5,2859.5C 2305.57,2906.78 2286.9,2954.28 2268.5,3002C 2268.57,3002.76 2268.9,3003.26 2269.5,3003.5C 2269.5,3003.83 2269.5,3004.17 2269.5,3004.5C 2268.5,3004.5 2267.5,3004.5 2266.5,3004.5C 2263.83,3004.5 2261.17,3004.5 2258.5,3004.5C 2277.56,2954.82 2296.73,2905.15 2316,2855.5C 2316.42,2854.24 2317.25,2853.58 2318.5,2853.5 Z"/></g>
<g><path style="opacity:0.999" fill="#dd1c5e" d="M 1930.5,2856.5 C 1926.24,2857.13 1921.91,2857.96 1917.5,2859C 1819.5,2918.33 1721.5,2977.67 1623.5,3037C 1619.45,3038.94 1619.78,3039.77 1624.5,3039.5C 1618.69,3040.49 1612.69,3040.82 1606.5,3040.5C 1602.82,3040.67 1599.15,3040.5 1595.5,3040C 1693.5,2980.67 1791.5,2921.33 1889.5,2862C 1895.42,2859.74 1901.42,2858.24 1907.5,2857.5C 1915.15,2856.86 1922.82,2856.52 1930.5,2856.5 Z"/></g>
<g><path style="opacity:0.998" fill="#d71b5b" d="M 1907.5,2857.5 C 1901.42,2858.24 1895.42,2859.74 1889.5,2862C 1791.5,2921.33 1693.5,2980.67 1595.5,3040C 1599.15,3040.5 1602.82,3040.67 1606.5,3040.5C 1600.36,3041.49 1594.02,3041.82 1587.5,3041.5C 1583.49,3041.67 1579.49,3041.5 1575.5,3041C 1674.67,2981.25 1773.67,2921.25 1872.5,2861C 1878.67,2860.36 1884.67,2859.52 1890.5,2858.5C 1896.15,2857.97 1901.82,2857.63 1907.5,2857.5 Z"/></g>
<g><path style="opacity:1" fill="#991341" d="M 2324.5,2859.5 C 2326.85,2861.86 2328.85,2864.53 2330.5,2867.5C 2312.9,2911.45 2295.57,2955.62 2278.5,3000C 2278.84,3001.03 2279.5,3001.53 2280.5,3001.5C 2277.09,3002.9 2273.42,3003.57 2269.5,3003.5C 2268.9,3003.26 2268.57,3002.76 2268.5,3002C 2286.9,2954.28 2305.57,2906.78 2324.5,2859.5 Z"/></g>
<g><path style="opacity:0.998" fill="#d11a58" d="M 1890.5,2858.5 C 1884.67,2859.52 1878.67,2860.36 1872.5,2861C 1773.67,2921.25 1674.67,2981.25 1575.5,3041C 1579.49,3041.5 1583.49,3041.67 1587.5,3041.5C 1581.36,3042.49 1575.02,3042.82 1568.5,3042.5C 1565.15,3042.67 1561.82,3042.5 1558.5,3042C 1658.43,2981.21 1758.43,2920.71 1858.5,2860.5C 1869.12,2859.47 1879.78,2858.8 1890.5,2858.5 Z"/></g>
<g><path style="opacity:0.999" fill="#cb1a56" d="M 1858.5,2860.5 C 1758.43,2920.71 1658.43,2981.21 1558.5,3042C 1561.82,3042.5 1565.15,3042.67 1568.5,3042.5C 1562.69,3043.49 1556.69,3043.82 1550.5,3043.5C 1547.15,3043.67 1543.82,3043.5 1540.5,3043C 1640.43,2982.21 1740.43,2921.71 1840.5,2861.5C 1846.41,2860.54 1852.41,2860.21 1858.5,2860.5 Z"/></g>
<g><path style="opacity:0.999" fill="#c41953" d="M 1831.5,2861.5 C 1834.5,2861.5 1837.5,2861.5 1840.5,2861.5C 1740.43,2921.71 1640.43,2982.21 1540.5,3043C 1543.82,3043.5 1547.15,3043.67 1550.5,3043.5C 1542.66,3044.34 1534.66,3045 1526.5,3045.5C 1527.03,3043.38 1528.36,3041.88 1530.5,3041C 1628.34,2981.97 1726,2922.8 1823.5,2863.5C 1826.17,2862.83 1828.83,2862.17 1831.5,2861.5 Z"/></g>
<g><path style="opacity:0.999" fill="#b8174e" d="M 1831.5,2861.5 C 1828.83,2862.17 1826.17,2862.83 1823.5,2863.5C 1818.79,2863.17 1814.12,2863.51 1809.5,2864.5C 1711,2924.58 1612.33,2984.42 1513.5,3044C 1515.06,3044.21 1516.39,3044.71 1517.5,3045.5C 1512.87,3046.23 1508.2,3046.56 1503.5,3046.5C 1503.08,3045.78 1502.42,3045.28 1501.5,3045C 1590.67,2991.25 1679.67,2937.25 1768.5,2883C 1767.91,2882.54 1767.24,2882.37 1766.5,2882.5C 1779.12,2875.03 1792.12,2868.36 1805.5,2862.5C 1814.18,2862.48 1822.85,2862.15 1831.5,2861.5 Z"/></g>
<g><path style="opacity:1" fill="#bf1851" d="M 1823.5,2863.5 C 1726,2922.8 1628.34,2981.97 1530.5,3041C 1528.36,3041.88 1527.03,3043.38 1526.5,3045.5C 1523.5,3045.5 1520.5,3045.5 1517.5,3045.5C 1516.39,3044.71 1515.06,3044.21 1513.5,3044C 1612.33,2984.42 1711,2924.58 1809.5,2864.5C 1814.12,2863.51 1818.79,2863.17 1823.5,2863.5 Z"/></g>
<g><path style="opacity:1" fill="#92123e" d="M 2330.5,2867.5 C 2332.73,2870.29 2334.73,2873.29 2336.5,2876.5C 2320.28,2916.63 2304.28,2956.97 2288.5,2997.5C 2288.96,2998.3 2289.62,2998.63 2290.5,2998.5C 2287.38,2999.87 2284.05,3000.87 2280.5,3001.5C 2279.5,3001.53 2278.84,3001.03 2278.5,3000C 2295.57,2955.62 2312.9,2911.45 2330.5,2867.5 Z"/></g>
<g><path style="opacity:1" fill="#8a113a" d="M 2336.5,2876.5 C 2340.36,2883.73 2343.02,2891.4 2344.5,2899.5C 2343.78,2899.08 2343.28,2898.42 2343,2897.5C 2330.88,2928.08 2319.04,2958.74 2307.5,2989.5C 2302.57,2993.73 2296.9,2996.73 2290.5,2998.5C 2289.62,2998.63 2288.96,2998.3 2288.5,2997.5C 2304.28,2956.97 2320.28,2916.63 2336.5,2876.5 Z"/></g>
<g><path style="opacity:0.999" fill="#b2174c" d="M 1766.5,2882.5 C 1767.24,2882.37 1767.91,2882.54 1768.5,2883C 1679.67,2937.25 1590.67,2991.25 1501.5,3045C 1502.42,3045.28 1503.08,3045.78 1503.5,3046.5C 1498.81,3046.54 1494.14,3046.87 1489.5,3047.5C 1489.08,3046.78 1488.42,3046.28 1487.5,3046C 1540.17,3014 1592.83,2982 1645.5,2950C 1644.91,2949.54 1644.24,2949.37 1643.5,2949.5C 1684.34,2926.91 1725.34,2904.58 1766.5,2882.5 Z"/></g>
<g><path style="opacity:1" fill="#7f1036" d="M 2344.5,2899.5 C 2347.14,2917.31 2345.3,2934.64 2339,2951.5C 2332.49,2967.56 2321.99,2980.23 2307.5,2989.5C 2319.04,2958.74 2330.88,2928.08 2343,2897.5C 2343.28,2898.42 2343.78,2899.08 2344.5,2899.5 Z"/></g>
<g><path style="opacity:1" fill="#ab1649" d="M 1643.5,2949.5 C 1644.24,2949.37 1644.91,2949.54 1645.5,2950C 1592.83,2982 1540.17,3014 1487.5,3046C 1488.42,3046.28 1489.08,3046.78 1489.5,3047.5C 1480.5,3047.79 1471.5,3048.12 1462.5,3048.5C 1522.56,3015.13 1582.89,2982.13 1643.5,2949.5 Z"/></g>
<g><path style="opacity:0.996" fill="#e41d61" d="M 808.5,3094.5 C 830.598,3135.86 852.598,3177.36 874.5,3219C 872.585,3221.4 870.919,3223.9 869.5,3226.5C 869.5,3226.83 869.5,3227.17 869.5,3227.5C 868.833,3227.5 868.5,3227.83 868.5,3228.5C 867.508,3228.33 866.842,3228.66 866.5,3229.5C 865.833,3229.5 865.5,3229.83 865.5,3230.5C 863.343,3232.41 861.009,3234.08 858.5,3235.5C 837.026,3193.89 815.526,3152.22 794,3110.5C 793.014,3109.83 791.847,3109.83 790.5,3110.5C 796.177,3104.82 802.177,3099.49 808.5,3094.5 Z"/></g>
<g><path style="opacity:1" fill="#dd1c5e" d="M 858.5,3235.5 C 855.672,3237.75 852.672,3239.75 849.5,3241.5C 827.924,3200.68 806.591,3159.68 785.5,3118.5C 784.3,3117.71 782.967,3117.71 781.5,3118.5C 783.88,3115.12 786.88,3112.45 790.5,3110.5C 791.847,3109.83 793.014,3109.83 794,3110.5C 815.526,3152.22 837.026,3193.89 858.5,3235.5 Z"/></g>
<g><path style="opacity:1" fill="#d71b5b" d="M 849.5,3241.5 C 847.117,3243.36 844.45,3244.69 841.5,3245.5C 820.267,3204.7 798.767,3164.04 777,3123.5C 775.549,3125.46 773.716,3126.8 771.5,3127.5C 774.211,3123.79 777.544,3120.79 781.5,3118.5C 782.967,3117.71 784.3,3117.71 785.5,3118.5C 806.591,3159.68 827.924,3200.68 849.5,3241.5 Z"/></g>
<g><path style="opacity:1" fill="#d11b59" d="M 841.5,3245.5 C 839.351,3246.74 837.018,3247.74 834.5,3248.5C 813.591,3209.02 792.924,3169.35 772.5,3129.5C 771.998,3128.48 771.332,3128.31 770.5,3129C 768.627,3130.7 766.96,3132.54 765.5,3134.5C 764.167,3135.5 762.833,3136.5 761.5,3137.5C 761.5,3137.17 761.5,3136.83 761.5,3136.5C 764.231,3132.77 767.564,3129.77 771.5,3127.5C 773.716,3126.8 775.549,3125.46 777,3123.5C 798.767,3164.04 820.267,3204.7 841.5,3245.5 Z"/></g>
<g><path style="opacity:1" fill="#cb1a56" d="M 834.5,3248.5 C 831.167,3249.5 827.833,3250.5 824.5,3251.5C 824.804,3250.85 825.137,3250.18 825.5,3249.5C 805.742,3210.98 785.742,3172.65 765.5,3134.5C 766.96,3132.54 768.627,3130.7 770.5,3129C 771.332,3128.31 771.998,3128.48 772.5,3129.5C 792.924,3169.35 813.591,3209.02 834.5,3248.5 Z"/></g>
<g><path style="opacity:1" fill="#c01851" d="M 765.5,3134.5 C 785.742,3172.65 805.742,3210.98 825.5,3249.5C 825.137,3250.18 824.804,3250.85 824.5,3251.5C 820.865,3252.11 817.198,3252.45 813.5,3252.5C 794.738,3215.97 775.738,3179.64 756.5,3143.5C 758.167,3141.5 759.833,3139.5 761.5,3137.5C 762.833,3136.5 764.167,3135.5 765.5,3134.5 Z"/></g>
<g><path style="opacity:1" fill="#b4174c" d="M 756.5,3143.5 C 775.738,3179.64 794.738,3215.97 813.5,3252.5C 807.974,3252.82 802.64,3252.49 797.5,3251.5C 798.552,3251.65 799.552,3251.48 800.5,3251C 784.039,3219.91 767.706,3188.75 751.5,3157.5C 751.043,3156.7 750.376,3156.37 749.5,3156.5C 751.403,3151.93 753.736,3147.6 756.5,3143.5 Z"/></g>
<g><path style="opacity:1" fill="#ab1649" d="M 749.5,3156.5 C 750.376,3156.37 751.043,3156.7 751.5,3157.5C 767.706,3188.75 784.039,3219.91 800.5,3251C 799.552,3251.48 798.552,3251.65 797.5,3251.5C 795.901,3251.77 794.568,3251.43 793.5,3250.5C 778.673,3220.84 763.34,3191.51 747.5,3162.5C 747.604,3160.3 748.27,3158.3 749.5,3156.5 Z"/></g>
<g><path style="opacity:1" fill="#a41445" d="M 747.5,3162.5 C 763.34,3191.51 778.673,3220.84 793.5,3250.5C 788.12,3249.31 783.12,3247.31 778.5,3244.5C 779.239,3244.63 779.906,3244.46 780.5,3244C 768.853,3221.2 756.853,3198.7 744.5,3176.5C 744.498,3171.5 745.498,3166.83 747.5,3162.5 Z"/></g>
<g><path style="opacity:1" fill="#94123f" d="M 744.5,3176.5 C 756.853,3198.7 768.853,3221.2 780.5,3244C 779.906,3244.46 779.239,3244.63 778.5,3244.5C 753.927,3228.69 742.594,3206.02 744.5,3176.5 Z"/></g>
</svg>
